<svg width="420" height="840" viewBox="0 0 420 840" fill="none" xmlns="http://www.w3.org/2000/svg">
  <defs>
    <linearGradient id="bg" x1="0" y1="0" x2="420" y2="840">
      <stop stop-color="#4338CA"/>
      <stop offset="1" stop-color="#0EA5E9"/>
    </linearGradient>
  </defs>
  <rect width="420" height="840" rx="54" fill="url(#bg)"/>
  <rect x="18" y="18" width="384" height="804" rx="42" fill="#0B1020"/>
  <rect x="44" y="56" width="332" height="50" rx="18" fill="#1E293B"/>
  <text x="70" y="88" fill="#F8FAFC" font-family="Inter,Arial" font-size="18" font-weight="700">Sao luu / Khoi phuc</text>
  <rect x="44" y="126" width="332" height="140" rx="20" fill="#111827"/>
  <text x="60" y="158" fill="#93C5FD" font-family="Inter,Arial" font-size="14">Xuat du lieu (.vgtd)</text>
  <text x="60" y="186" fill="#F8FAFC" font-family="Inter,Arial" font-size="15">84 giay to duoc chon</text>
  <rect x="60" y="202" width="300" height="40" rx="12" fill="#1D4ED8"/>
  <text x="154" y="228" fill="#DBEAFE" font-family="Inter,Arial" font-size="14" font-weight="700">Tiep theo</text>
  <rect x="44" y="282" width="332" height="190" rx="20" fill="#111827"/>
  <text x="60" y="314" fill="#93C5FD" font-family="Inter,Arial" font-size="14">Tao PIN bao ve backup</text>
  <rect x="60" y="334" width="300" height="56" rx="14" fill="#1F2937"/>
  <text x="74" y="367" fill="#E5E7EB" font-family="Inter,Arial" font-size="22" letter-spacing="7">* * * * * *</text>
  <rect x="60" y="402" width="300" height="56" rx="14" fill="#1F2937"/>
  <text x="74" y="435" fill="#E5E7EB" font-family="Inter,Arial" font-size="22" letter-spacing="7">* * * * * *</text>
  <rect x="44" y="488" width="332" height="108" rx="20" fill="#16A34A"/>
  <text x="114" y="528" fill="#052E16" font-family="Inter,Arial" font-size="22" font-weight="700">Xuat hoan tat</text>
  <text x="96" y="556" fill="#14532D" font-family="Inter,Arial" font-size="13">Chia se file backup .vgtd</text>
  <rect x="44" y="612" width="332" height="140" rx="20" fill="#111827"/>
  <text x="60" y="644" fill="#93C5FD" font-family="Inter,Arial" font-size="14">Nhap du lieu (.vgtd)</text>
  <text x="60" y="670" fill="#E5E7EB" font-family="Inter,Arial" font-size="13">Chon che do: Them moi hoac Ghi de</text>
  <text x="60" y="694" fill="#E5E7EB" font-family="Inter,Arial" font-size="13">Khoi phuc theo tung muc da chon</text>
  <text x="60" y="718" fill="#E5E7EB" font-family="Inter,Arial" font-size="13">Nhap dung PIN 6 so de giai ma</text>
</svg>
