<svg width="420" height="840" viewBox="0 0 420 840" fill="none" xmlns="http://www.w3.org/2000/svg">
  <defs>
    <linearGradient id="bg" x1="0" y1="0" x2="420" y2="840">
      <stop stop-color="#0EA5E9"/>
      <stop offset="1" stop-color="#4F46E5"/>
    </linearGradient>
  </defs>
  <rect width="420" height="840" rx="54" fill="url(#bg)"/>
  <rect x="18" y="18" width="384" height="804" rx="42" fill="#0B1220"/>
  <rect x="44" y="56" width="332" height="50" rx="18" fill="#1E293B"/>
  <text x="64" y="88" fill="#F8FAFC" font-family="Inter,Arial" font-size="18" font-weight="700">Them / Sua giay to</text>
  <rect x="44" y="126" width="158" height="62" rx="16" fill="#1D4ED8"/>
  <rect x="218" y="126" width="158" height="62" rx="16" fill="#1D4ED8"/>
  <rect x="44" y="200" width="158" height="62" rx="16" fill="#1D4ED8"/>
  <rect x="218" y="200" width="158" height="62" rx="16" fill="#1D4ED8"/>
  <text x="74" y="163" fill="#F8FAFC" font-family="Inter,Arial" font-size="14">Scan thong minh</text>
  <text x="258" y="163" fill="#F8FAFC" font-family="Inter,Arial" font-size="14">Chup thuong</text>
  <text x="90" y="237" fill="#F8FAFC" font-family="Inter,Arial" font-size="14">Thu vien</text>
  <text x="282" y="237" fill="#F8FAFC" font-family="Inter,Arial" font-size="14">PDF</text>
  <rect x="44" y="280" width="332" height="72" rx="16" fill="#111827"/>
  <text x="60" y="311" fill="#93C5FD" font-family="Inter,Arial" font-size="13">Ten giay to *</text>
  <text x="60" y="334" fill="#E5E7EB" font-family="Inter,Arial" font-size="14">CCCD Nguyen Van A</text>
  <rect x="44" y="364" width="332" height="72" rx="16" fill="#111827"/>
  <text x="60" y="395" fill="#93C5FD" font-family="Inter,Arial" font-size="13">Phan loai</text>
  <text x="60" y="418" fill="#E5E7EB" font-family="Inter,Arial" font-size="14">Ca nhan, Giay to quan trong</text>
  <rect x="44" y="448" width="332" height="72" rx="16" fill="#111827"/>
  <text x="60" y="479" fill="#93C5FD" font-family="Inter,Arial" font-size="13">Ngay het han</text>
  <text x="60" y="502" fill="#E5E7EB" font-family="Inter,Arial" font-size="14">18/08/2027</text>
  <rect x="44" y="532" width="332" height="126" rx="16" fill="#111827"/>
  <text x="60" y="563" fill="#93C5FD" font-family="Inter,Arial" font-size="13">Ghi chu</text>
  <text x="60" y="586" fill="#E5E7EB" font-family="Inter,Arial" font-size="14">Ban chup hai mat, da kiem tra thong tin.</text>
  <rect x="44" y="686" width="332" height="72" rx="20" fill="#22C55E"/>
  <text x="180" y="730" fill="#052E16" font-family="Inter,Arial" font-size="20" font-weight="700">Luu</text>
</svg>
