<svg width="420" height="840" viewBox="0 0 420 840" fill="none" xmlns="http://www.w3.org/2000/svg">
  <defs>
    <linearGradient id="bg" x1="0" y1="0" x2="420" y2="840">
      <stop stop-color="#1D4ED8"/>
      <stop offset="1" stop-color="#6D28D9"/>
    </linearGradient>
  </defs>
  <rect width="420" height="840" rx="54" fill="url(#bg)"/>
  <rect x="18" y="18" width="384" height="804" rx="42" fill="#0F172A"/>
  <rect x="44" y="56" width="332" height="50" rx="18" fill="#1F2937"/>
  <text x="68" y="88" fill="#E5E7EB" font-family="Inter,Arial" font-size="19" font-weight="700">Vi giay to</text>
  <rect x="44" y="126" width="332" height="74" rx="20" fill="#1E293B"/>
  <text x="60" y="156" fill="#F8FAFC" font-family="Inter,Arial" font-size="16" font-weight="700">Tong so: 84</text>
  <text x="60" y="180" fill="#93C5FD" font-family="Inter,Arial" font-size="13">Sap het han: 12 | Qua han: 3</text>
  <rect x="44" y="220" width="332" height="106" rx="20" fill="#111827"/>
  <text x="60" y="252" fill="#E5E7EB" font-family="Inter,Arial" font-size="15" font-weight="700">CCCD Nguyen Van A</text>
  <text x="60" y="276" fill="#22C55E" font-family="Inter,Arial" font-size="12">Con 18 ngay</text>
  <text x="60" y="297" fill="#9CA3AF" font-family="Inter,Arial" font-size="12">Da ghim</text>
  <rect x="44" y="340" width="332" height="106" rx="20" fill="#111827"/>
  <text x="60" y="372" fill="#E5E7EB" font-family="Inter,Arial" font-size="15" font-weight="700">Bang lai xe B2</text>
  <text x="60" y="396" fill="#F59E0B" font-family="Inter,Arial" font-size="12">Con 5 ngay</text>
  <text x="60" y="417" fill="#9CA3AF" font-family="Inter,Arial" font-size="12">Nhan: Ca nhan</text>
  <rect x="44" y="460" width="332" height="106" rx="20" fill="#111827"/>
  <text x="60" y="492" fill="#E5E7EB" font-family="Inter,Arial" font-size="15" font-weight="700">Ho chieu</text>
  <text x="60" y="516" fill="#38BDF8" font-family="Inter,Arial" font-size="12">Con 240 ngay</text>
  <text x="60" y="537" fill="#9CA3AF" font-family="Inter,Arial" font-size="12">Nhan: Cong viec</text>
  <rect x="132" y="702" width="156" height="72" rx="26" fill="#2563EB"/>
  <text x="176" y="746" fill="#F8FAFC" font-family="Inter,Arial" font-size="36" font-weight="700">+</text>
</svg>
