<svg width="420" height="840" viewBox="0 0 420 840" fill="none" xmlns="http://www.w3.org/2000/svg">
  <defs>
    <linearGradient id="bg" x1="0" y1="0" x2="420" y2="840">
      <stop stop-color="#1E3A8A"/>
      <stop offset="1" stop-color="#0F766E"/>
    </linearGradient>
  </defs>
  <rect width="420" height="840" rx="54" fill="url(#bg)"/>
  <rect x="18" y="18" width="384" height="804" rx="42" fill="#081121"/>
  <rect x="44" y="56" width="332" height="50" rx="18" fill="#1E293B"/>
  <text x="88" y="88" fill="#F8FAFC" font-family="Inter,Arial" font-size="18" font-weight="700">My Documents</text>
  <rect x="168" y="130" width="208" height="70" rx="16" fill="#1E40AF"/>
  <text x="184" y="170" fill="#DBEAFE" font-family="Inter,Arial" font-size="14">Ghi chu cuoc hen ngay mai</text>
  <rect x="44" y="214" width="196" height="168" rx="16" fill="#0F172A" stroke="#334155"/>
  <rect x="56" y="226" width="172" height="108" rx="12" fill="#1F2937"/>
  <text x="74" y="355" fill="#93C5FD" font-family="Inter,Arial" font-size="12">Anh ho so gia dinh</text>
  <rect x="44" y="398" width="220" height="84" rx="16" fill="#1E40AF"/>
  <text x="60" y="430" fill="#DBEAFE" font-family="Inter,Arial" font-size="14">Da gui file PDF ho so nha dat</text>
  <text x="60" y="455" fill="#BFDBFE" font-family="Inter,Arial" font-size="12">1 PDF - 2.4MB</text>
  <rect x="184" y="498" width="192" height="80" rx="16" fill="#1E40AF"/>
  <text x="200" y="530" fill="#DBEAFE" font-family="Inter,Arial" font-size="14">Nho photo so ho khau</text>
  <text x="200" y="553" fill="#BFDBFE" font-family="Inter,Arial" font-size="12">Da danh dau quan trong</text>
  <rect x="44" y="594" width="332" height="68" rx="16" fill="#111827"/>
  <text x="60" y="623" fill="#9CA3AF" font-family="Inter,Arial" font-size="13">Ghi chu gi do...</text>
  <circle cx="336" cy="628" r="24" fill="#2563EB"/>
  <text x="327" y="636" fill="#E0E7FF" font-family="Inter,Arial" font-size="16" font-weight="700">Gui</text>
  <rect x="44" y="680" width="332" height="72" rx="16" fill="#111827"/>
  <text x="60" y="710" fill="#A7F3D0" font-family="Inter,Arial" font-size="13">Luu ca van ban, anh, video va tep trong mot noi</text>
</svg>
