<svg width="420" height="840" viewBox="0 0 420 840" fill="none" xmlns="http://www.w3.org/2000/svg">
  <defs>
    <linearGradient id="bg" x1="0" y1="0" x2="420" y2="840">
      <stop stop-color="#0EA5E9"/>
      <stop offset="1" stop-color="#14B8A6"/>
    </linearGradient>
  </defs>
  <rect width="420" height="840" rx="54" fill="url(#bg)"/>
  <rect x="18" y="18" width="384" height="804" rx="42" fill="#0A1220"/>
  <rect x="44" y="56" width="332" height="50" rx="18" fill="#1E293B"/>
  <text x="80" y="88" fill="#F8FAFC" font-family="Inter,Arial" font-size="18" font-weight="700">Tab Anh</text>
  <rect x="44" y="126" width="160" height="56" rx="16" fill="#1D4ED8"/>
  <rect x="216" y="126" width="160" height="56" rx="16" fill="#1D4ED8"/>
  <text x="86" y="160" fill="#DBEAFE" font-family="Inter,Arial" font-size="13">Them anh</text>
  <text x="264" y="160" fill="#DBEAFE" font-family="Inter,Arial" font-size="13">Loc theo nhan</text>

  <rect x="44" y="196" width="332" height="526" rx="20" fill="#111827"/>

  <rect x="60" y="214" width="92" height="92" rx="14" fill="#1F2937"/>
  <rect x="164" y="214" width="92" height="92" rx="14" fill="#1F2937"/>
  <rect x="268" y="214" width="92" height="92" rx="14" fill="#1F2937"/>

  <rect x="60" y="318" width="92" height="92" rx="14" fill="#1F2937"/>
  <rect x="164" y="318" width="92" height="92" rx="14" fill="#1F2937"/>
  <rect x="268" y="318" width="92" height="92" rx="14" fill="#1F2937"/>

  <rect x="60" y="422" width="92" height="92" rx="14" fill="#1F2937"/>
  <rect x="164" y="422" width="92" height="92" rx="14" fill="#1F2937"/>
  <rect x="268" y="422" width="92" height="92" rx="14" fill="#1F2937"/>

  <rect x="60" y="526" width="92" height="92" rx="14" fill="#1F2937"/>
  <rect x="164" y="526" width="92" height="92" rx="14" fill="#1F2937"/>
  <rect x="268" y="526" width="92" height="92" rx="14" fill="#1F2937"/>

  <text x="60" y="654" fill="#A7F3D0" font-family="Inter,Arial" font-size="13">Xem nhanh tat ca anh giay to da luu</text>
  <text x="60" y="676" fill="#93C5FD" font-family="Inter,Arial" font-size="12">Mo anh, zoom, chia se hoac xuat PDF</text>
</svg>
