<svg width="420" height="840" viewBox="0 0 420 840" fill="none" xmlns="http://www.w3.org/2000/svg">
  <rect width="420" height="840" rx="54" fill="#1E293B"/>
  <rect x="18" y="18" width="384" height="804" rx="42" fill="#0F172A"/>
  <rect x="44" y="56" width="332" height="52" rx="16" fill="#1F2937"/>
  <text x="66" y="88" fill="#E5E7EB" font-family="Inter,Arial" font-size="16" font-weight="700">Anh</text>

  <rect x="44" y="128" width="332" height="594" rx="16" fill="#1F2937"/>
  <rect x="62" y="146" width="92" height="92" rx="10" fill="#334155"/>
  <rect x="164" y="146" width="92" height="92" rx="10" fill="#334155"/>
  <rect x="266" y="146" width="92" height="92" rx="10" fill="#334155"/>
  <rect x="62" y="248" width="92" height="92" rx="10" fill="#334155"/>
  <rect x="164" y="248" width="92" height="92" rx="10" fill="#334155"/>
  <rect x="266" y="248" width="92" height="92" rx="10" fill="#334155"/>
  <rect x="62" y="350" width="92" height="92" rx="10" fill="#334155"/>
  <rect x="164" y="350" width="92" height="92" rx="10" fill="#334155"/>
  <rect x="266" y="350" width="92" height="92" rx="10" fill="#334155"/>
</svg>
