<svg width="420" height="840" viewBox="0 0 420 840" fill="none" xmlns="http://www.w3.org/2000/svg">
  <defs>
    <linearGradient id="bg" x1="0" y1="0" x2="420" y2="840">
      <stop stop-color="#4338CA"/>
      <stop offset="1" stop-color="#0284C7"/>
    </linearGradient>
  </defs>
  <rect width="420" height="840" rx="54" fill="url(#bg)"/>
  <rect x="18" y="18" width="384" height="804" rx="42" fill="#0B1020"/>
  <rect x="44" y="56" width="332" height="50" rx="18" fill="#1E293B"/>
  <text x="72" y="88" fill="#F8FAFC" font-family="Inter,Arial" font-size="18" font-weight="700">Tab Tao PDF</text>

  <rect x="44" y="126" width="332" height="138" rx="20" fill="#111827"/>
  <text x="60" y="158" fill="#93C5FD" font-family="Inter,Arial" font-size="14">Buoc 1: Chon anh</text>
  <rect x="60" y="174" width="92" height="72" rx="12" fill="#1F2937"/>
  <rect x="164" y="174" width="92" height="72" rx="12" fill="#1F2937"/>
  <rect x="268" y="174" width="92" height="72" rx="12" fill="#1F2937"/>

  <rect x="44" y="278" width="332" height="210" rx="20" fill="#111827"/>
  <text x="60" y="310" fill="#93C5FD" font-family="Inter,Arial" font-size="14">Buoc 2: Cau hinh file PDF</text>
  <rect x="60" y="326" width="300" height="54" rx="12" fill="#1F2937"/>
  <text x="74" y="358" fill="#E5E7EB" font-family="Inter,Arial" font-size="13">Ten file: Ho_so_ca_nhan_2026</text>
  <rect x="60" y="390" width="144" height="44" rx="12" fill="#1F2937"/>
  <rect x="216" y="390" width="144" height="44" rx="12" fill="#1F2937"/>
  <text x="92" y="418" fill="#E5E7EB" font-family="Inter,Arial" font-size="13">Kho A4</text>
  <text x="244" y="418" fill="#E5E7EB" font-family="Inter,Arial" font-size="13">Le 1cm</text>
  <rect x="60" y="446" width="300" height="30" rx="10" fill="#1D4ED8"/>

  <rect x="44" y="502" width="332" height="226" rx="20" fill="#111827"/>
  <text x="60" y="534" fill="#93C5FD" font-family="Inter,Arial" font-size="14">Buoc 3: Xem truoc va chia se</text>
  <rect x="60" y="550" width="300" height="132" rx="12" fill="#1F2937"/>
  <rect x="60" y="692" width="144" height="28" rx="10" fill="#22C55E"/>
  <rect x="216" y="692" width="144" height="28" rx="10" fill="#2563EB"/>
  <text x="104" y="711" fill="#052E16" font-family="Inter,Arial" font-size="12" font-weight="700">Xem PDF</text>
  <text x="260" y="711" fill="#DBEAFE" font-family="Inter,Arial" font-size="12" font-weight="700">Chia se</text>
</svg>
