<svg width="1200" height="900" viewBox="0 0 1200 900" fill="none" xmlns="http://www.w3.org/2000/svg">
  <defs>
    <linearGradient id="bg" x1="0" y1="0" x2="1200" y2="900">
      <stop stop-color="#1E1B4B"/>
      <stop offset="1" stop-color="#0369A1"/>
    </linearGradient>
  </defs>
  <rect width="1200" height="900" rx="40" fill="url(#bg)"/>
  <rect x="48" y="42" width="1104" height="78" rx="18" fill="#1F2937"/>
  <text x="84" y="90" fill="#E2E8F0" font-family="Inter,Arial" font-size="34" font-weight="700">Tab Tao PDF</text>

  <rect x="48" y="150" width="354" height="702" rx="20" fill="#111827" stroke="#334155"/>
  <text x="82" y="212" fill="#93C5FD" font-family="Inter,Arial" font-size="28">1. Chon anh</text>
  <rect x="82" y="242" width="286" height="84" rx="12" fill="#1F2937"/>
  <rect x="82" y="340" width="286" height="84" rx="12" fill="#1F2937"/>

  <rect x="422" y="150" width="354" height="702" rx="20" fill="#111827" stroke="#334155"/>
  <text x="456" y="212" fill="#93C5FD" font-family="Inter,Arial" font-size="28">2. Cau hinh</text>
  <rect x="456" y="242" width="286" height="84" rx="12" fill="#1F2937"/>
  <rect x="456" y="340" width="286" height="84" rx="12" fill="#1F2937"/>
  <rect x="456" y="438" width="286" height="84" rx="12" fill="#1F2937"/>

  <rect x="796" y="150" width="354" height="702" rx="20" fill="#111827" stroke="#334155"/>
  <text x="830" y="212" fill="#93C5FD" font-family="Inter,Arial" font-size="28">3. Xuat file</text>
  <rect x="830" y="242" width="286" height="260" rx="12" fill="#1F2937"/>
  <rect x="830" y="530" width="136" height="64" rx="12" fill="#22C55E"/>
  <rect x="980" y="530" width="136" height="64" rx="12" fill="#2563EB"/>
</svg>
