<svg width="1200" height="900" viewBox="0 0 1200 900" fill="none" xmlns="http://www.w3.org/2000/svg">
  <defs>
    <linearGradient id="bg" x1="0" y1="0" x2="1200" y2="900">
      <stop stop-color="#0F172A"/>
      <stop offset="1" stop-color="#0F766E"/>
    </linearGradient>
  </defs>
  <rect width="1200" height="900" rx="40" fill="url(#bg)"/>
  <rect x="48" y="42" width="1104" height="78" rx="18" fill="#1F2937"/>
  <text x="84" y="90" fill="#E2E8F0" font-family="Inter,Arial" font-size="34" font-weight="700">Tab Anh - Thu vien anh giay to</text>

  <rect x="48" y="150" width="1104" height="702" rx="20" fill="#111827" stroke="#334155"/>
  <text x="84" y="210" fill="#A7F3D0" font-family="Inter,Arial" font-size="30" font-weight="700">Xem nhanh, mo anh, doi chieu thong tin</text>

  <rect x="84" y="242" width="150" height="150" rx="16" fill="#334155"/>
  <rect x="252" y="242" width="150" height="150" rx="16" fill="#334155"/>
  <rect x="420" y="242" width="150" height="150" rx="16" fill="#334155"/>
  <rect x="588" y="242" width="150" height="150" rx="16" fill="#334155"/>
  <rect x="756" y="242" width="150" height="150" rx="16" fill="#334155"/>
  <rect x="924" y="242" width="150" height="150" rx="16" fill="#334155"/>

  <rect x="84" y="410" width="150" height="150" rx="16" fill="#334155"/>
  <rect x="252" y="410" width="150" height="150" rx="16" fill="#334155"/>
  <rect x="420" y="410" width="150" height="150" rx="16" fill="#334155"/>
  <rect x="588" y="410" width="150" height="150" rx="16" fill="#334155"/>
  <rect x="756" y="410" width="150" height="150" rx="16" fill="#334155"/>
  <rect x="924" y="410" width="150" height="150" rx="16" fill="#334155"/>

  <rect x="84" y="578" width="990" height="70" rx="14" fill="#1F2937"/>
  <text x="120" y="622" fill="#E5E7EB" font-family="Inter,Arial" font-size="26">Tac vu nhanh: Chia se | Tao PDF | Xem chi tiet</text>
</svg>
